<svg
                      width="25"
                      height="24"
                      viewBox="0 0 25 24"
                      fill="none"
                      xmlns="http://www.w3.org/2000/svg"
                    >
                      <path
                        d="M7.05518 8V6C7.05518 4.67392 7.58169 3.40215 8.51888 2.46447C9.45608 1.52678 10.7272 1 12.0526 1C13.378 1 14.6491 1.52678 15.5863 2.46447C16.5235 3.40215 17.05 4.67392 17.05 6V8H20.0484C20.3135 8 20.5677 8.10536 20.7552 8.29289C20.9426 8.48043 21.0479 8.73478 21.0479 9V21C21.0479 21.2652 20.9426 21.5196 20.7552 21.7071C20.5677 21.8946 20.3135 22 20.0484 22H4.05673C3.79165 22 3.53743 21.8946 3.34999 21.7071C3.16255 21.5196 3.05725 21.2652 3.05725 21V9C3.05725 8.73478 3.16255 8.48043 3.34999 8.29289C3.53743 8.10536 3.79165 8 4.05673 8H7.05518ZM7.05518 10H5.05621V20H19.049V10H17.05V12H15.051V10H9.05414V12H7.05518V10ZM9.05414 8H15.051V6C15.051 5.20435 14.7351 4.44129 14.1728 3.87868C13.6105 3.31607 12.8478 3 12.0526 3C11.2573 3 10.4947 3.31607 9.93236 3.87868C9.37004 4.44129 9.05414 5.20435 9.05414 6V8Z"
                        fill="#FFFFFF"
                      ></path>
                    </svg>
